<?xml version="1.0" encoding="UTF-8"?> <!-- Generator: Adobe Illustrator 24.2.1, SVG Export Plug-In . SVG Version: 6.00 Build 0) --> <svg xmlns="http://www.w3.org/2000/svg" xmlns:xlink="http://www.w3.org/1999/xlink" version="1.1" id="Capa_1" x="0px" y="0px" viewBox="0 0 373 188" style="enable-background:new 0 0 373 188;" xml:space="preserve"> <style type="text/css"> .st0{fill:#E18003;} .st1{fill:#0C4B78;} .st2{fill:#0B4A77;} .st3{fill:#0C4A77;} .st4{fill:#0A4976;} .st5{fill:#094876;} .st6{fill:#E18004;} .st7{fill:#18537D;} .st8{fill:#14507A;} .st9{fill:#1D567F;} </style> <g> <path class="st0" d="M365.1,88.2c-8.6,0.1-17,0.6-25.4,1.8c-23.3,3.2-45.6,9.5-67.3,18.5c-17.3,7.1-33.4,16.4-49.4,26.1 c-16.5,9.9-33.4,19.1-51.5,25.9c-7.1,2.7-14.3,4.9-21.7,6.5c-0.8,0.2-1.5,0.3-1.7,1.2c-0.2,1,0.7,1.3,1.3,1.7 c6.4,3.7,13.5,5.6,20.6,7.6c2,0.6,4.1,1.1,6.1,1.8c0.9,0.3,2.4,0.3,2.2,1.8c-0.2,1.5-1.5,1.1-2.6,1.1c-14.3,0-28.6,0-42.9,0 c-14.9,0-29.8,0-44.7-0.1c-1.1,0-2.3,0-3.1-0.9c-1.4-1.6-0.7-3.6,1.6-4.5c4.4-1.8,8.9-3.5,13.3-5.3c0.7-0.3,1.5-0.7,2.2-1 c0.7-0.3,1.3-0.7,1.1-1.5c-0.1-0.9-0.9-1.1-1.7-1.2c-3.9-0.5-7.8-0.9-11.6-1.5c-17.2-2.8-33.8-7.5-48.6-17.1 c-18-11.8-29.1-28.5-33.5-49.4c-5-23.6-0.1-45.7,11.8-66.5c1.3-2.3,2.9-4.5,4.9-6.3c0.5-0.4,1-1.1,1.8-0.7c0.8,0.5,0.3,1.3,0,1.9 C22,39.8,19.1,52,17.5,64.6c-2.6,21,2.9,39.2,17.8,54.4c6.5,6.7,14.7,10.9,23.4,14.2c20.4,7.8,41.5,12.1,63.3,11.8 c18-0.3,36-2,53.4-7.1c14.7-4.3,28.6-10.5,42.4-17.2c14.9-7.2,29.7-14.8,45.1-21c18.8-7.6,38.1-12.7,58.3-14.9 c12.4-1.4,24.8-1.7,37.2-1.1C361.7,83.9,364.3,85.5,365.1,88.2z"></path> <path class="st1" d="M216.6,25.3c-0.1-4.1,0.3-7.9-0.4-11.8c-0.7-3.5-2.1-4.8-5.7-4.9c-1.5,0-1.5-0.6-1.5-1.8 c-0.1-1.4,0.8-1.3,1.7-1.3c3.9,0.1,7.8-0.2,11.7,0.2c3.6,0.4,5.3,2,6,5.6c0.5,2.3,0.6,4.7,0.6,7c0,15.9,0,31.8,0,47.7 c0,1.5-0.3,2.2-1.9,2c-0.5-0.1-1.1-0.1-1.7,0c-3.2,0.5-5.7-0.3-7.2-3.3c-0.3-0.5-0.6-1.2-1.5-0.4c-8.2,7.4-20.5,5.7-26.4-3.6 c-3.6-5.6-4.2-11.8-3.7-18.3c0.4-5.1,2-9.9,5.5-13.8c5.3-6,15.4-7.9,22.8-4.2C215.3,24.6,215.8,24.9,216.6,25.3z M216.6,44.2 c0-4.3,0-8.7,0-13c0-0.7,0-1.4-0.7-2c-5.9-4.5-12.7-2.5-15.1,4.4c-0.3,0.8-0.5,1.7-0.7,2.5c-1,5.2-1.1,10.4-0.5,15.6 c0.4,3.4,0.9,6.8,2.8,9.7c1.8,2.7,4.9,3.8,8,2.8c3.2-1,6.2-4.5,6.2-7.2C216.6,52.8,216.6,48.5,216.6,44.2z"></path> <path class="st2" d="M268.1,49.2c-0.2-4.7,0.3-10.6-0.2-16.4c-0.4-4.6-2-6.4-6.3-6.4c-1.5,0-0.8-1.1-0.9-1.7 c-0.1-0.8,0.1-1.3,1.1-1.2c3.5,0.1,7,0.1,10.4,0.2c2,0.1,3.9,0.7,5.2,2.5c0.5,0.7,0.9,0.5,1.5,0.1c7.2-4.7,14.9-4.8,22.6-1.8 c5.6,2.1,7.9,7,8,12.6c0.3,9.9,0.1,19.9,0.2,29.8c0,1.2-0.6,1.1-1.4,1.1c-3.1,0-6.2-0.1-9.3,0c-1.4,0-1.6-0.5-1.6-1.7 c0-9.3,0-18.5,0-27.8c0-1.4-0.2-2.8-0.6-4.2c-1.8-7-11.1-9.5-16.4-4.5c-0.5,0.5-0.6,0.9-0.4,1.5c0.5,1.7,0.5,3.6,0.5,5.4 c0,9.9,0,19.8,0,29.6c0,1.4-0.4,1.8-1.8,1.7c-3-0.1-6-0.1-8.9,0c-1.5,0.1-1.7-0.5-1.7-1.8C268.2,60.9,268.1,55.6,268.1,49.2z"></path> <path class="st3" d="M95.8,68.4c-9.5-0.1-14.9-3.8-18.6-12.5c-0.7-1.7-1-3.8-2.3-4.8c-1.3-1-3.6-0.3-5.4-0.3c-5.9,0-11.8,0-17.7,0 c-1.3,0-2,0.3-2.5,1.6c-2,4.8-4.2,9.5-6.4,14.3c-0.5,1.1-4.4,2-5.2,1.2c-0.5-0.5,0.1-1,0.3-1.5C42,57.5,46,48.6,50,39.7 c4.8-10.8,9.7-21.6,14.4-32.5c0.9-2,2.3-1.5,3.7-1.7c1.5-0.2,1.7,0.8,2.1,1.8c6.7,16,13.4,32,20.2,48c0.8,1.8,1.6,3.7,2.7,5.3 c1.6,2.2,3.5,4.1,6.3,4.6c1,0.2,1,0.8,1,1.6c0,0.9-0.3,1.2-1.1,1.3C98.2,68.2,97,68.3,95.8,68.4z M63,22c-3.6,8-7,15.7-10.4,23.3 c-0.6,1.3,0.3,1.1,1,1.1c5.6,0,11.2,0,16.8,0c0.9,0,1.8,0,2.9,0C69.8,38.2,66.5,30.3,63,22z"></path> <path class="st2" d="M358.9,41.1c0,6.4,0,11.8,0,17.2c0,4.1,1.8,6.4,5.7,7.3c0.9,0.2,1.2,0.5,1.2,1.4c0,0.9-0.3,1.3-1.2,1.4 c-5,0.6-9.8,0.1-14.3-2.4c-0.5-0.3-1.1-0.5-1.6-0.9c-1-0.7-1.7-0.5-2.7,0.3c-5.9,5.3-16.9,3.9-22.2-2.6c-4.4-5.3-5.3-11.6-5-18.2 c0.2-2.9,0.8-5.8,1.9-8.5c4.3-9.8,15.4-13.8,24.9-9c1.2,0.6,1.7,0.5,2.2-0.7c0.9-2.2,2.3-3.6,4.9-3.1c1.5,0.2,3,0.1,4.5,0 c1.5-0.1,2,0.3,1.9,1.9C359,31,358.8,36.6,358.9,41.1z M346.6,45.9c0-4.3,0-8.6,0-12.8c0-1-0.3-1.5-1.1-1.9 c-6-3.7-11.6-1.6-13.5,5.1c-1.7,5.6-1.4,11.4-0.9,17.2c0.3,2.9,0.9,5.6,2.4,8.1c1.7,2.7,4.5,3.8,7.6,2.9c3.1-0.9,5.5-3.8,5.5-6.6 C346.6,53.9,346.6,49.9,346.6,45.9z"></path> <path class="st4" d="M162.1,28.1c0.8-4.4,3.8-4.9,7.6-4.6c4.3,0.3,4.3,0.1,4.2,4.4c-0.3,9.7-0.1,19.4-0.2,29c0,1.1,0.1,2.2,0.3,3.3 c0.6,3.1,2.5,5,5.5,5.5c1.1,0.2,1.2,0.7,1.2,1.6c0,1-0.5,1.2-1.3,1.3c-5.4,0.6-10.5-0.2-15.2-3c-1.5-0.9-2.5-0.8-4,0.4 c-6.1,5.2-17.4,3.1-22.4-4c-4.3-6-4.8-12.9-3.9-19.9c0.3-2.2,0.9-4.2,1.8-6.2c4.2-9.2,14.8-13.1,24-9 C160.4,27.2,161.1,27.6,162.1,28.1z M161.3,45.8c0-2.1,0-4.2,0-6.3c0-2.2,0-4.3,0.1-6.5c0-0.9-0.2-1.4-1-1.8c-5-2.8-11.3-3-13.6,5 c-1.8,6.4-1.7,13-0.6,19.5c0.4,2.3,1,4.5,2.4,6.4c1.8,2.4,4.6,3.2,7.5,2.3c3-1,5.2-3.7,5.2-6.5C161.3,53.9,161.3,49.8,161.3,45.8z"></path> <path class="st2" d="M122.4,40.8c0,8.4,0,16.9,0,25.3c0,1.4-0.3,1.8-1.7,1.8c-2.9-0.1-5.8-0.1-8.8,0c-1.4,0.1-1.9-0.3-1.9-1.8 c0.1-11.7,0.1-23.4,0-35c0-5.4,0.3-10.8-0.2-16.2c-0.5-4.7-1.7-5.9-6.3-6.4c-1.2-0.1-1.1-0.7-1.1-1.5c0-0.7-0.2-1.6,1-1.5 c4.2,0.1,8.3-0.2,12.5,0.2c3.3,0.4,5,1.9,5.8,5.1c0.5,1.9,0.6,3.9,0.6,5.9C122.4,24.8,122.4,32.8,122.4,40.8z"></path> <path class="st5" d="M254.6,49.9c0,5.5,0,11.1,0,16.6c0,1.3-0.3,1.7-1.6,1.7c-3-0.1-6-0.1-8.9,0c-1.3,0-1.6-0.4-1.6-1.7 c0.1-10.1,0-20.1,0-30.2c0-1.4-0.1-2.9-0.4-4.3c-0.7-3.2-2.2-4.5-5.4-4.6c-1.4,0-1.6-0.5-1.6-1.8c0-1.5,0.9-1.2,1.7-1.2 c3.7,0,7.3,0,11,0.1c3.7,0.2,5.6,2,6.3,5.6c0.8,4.6,0.4,9.2,0.5,13.8C254.7,46,254.6,48,254.6,49.9z"></path> <path class="st6" d="M125.9,136.6c-8.5-0.6-15.2-4.4-19.9-11.6c-0.8-1.3-1.8-2.9-0.8-4.3c1-1.5,2.7-0.7,4.2-0.5 c4.1,0.8,8.2,1.9,12.4,2.4c6.5,0.8,12.7-0.6,19-2.1c1.4-0.3,2.8-0.7,4.2-0.6c1.6,0.1,2.2,0.9,1.9,2.5c-0.2,1-0.6,2-1.2,2.9 C141,132.2,134.4,136,125.9,136.6z"></path> <path class="st7" d="M91,95.1c0.1-1.1,0.1-1.8,0.1-2.4c0-4.1,0-8.2,0-12.3c0-0.7-0.5-1.8,1-1.8c1.5,0,1.1,1,1.1,1.8 c0,5.7,0,11.3,0,17c0,0.6,0.5,1.5-0.5,1.7c-0.9,0.2-1.7,0.1-2.4-0.9c-2.9-4.6-5.9-9-8.9-13.6c-0.3-0.5-0.5-1.1-1.3-1.3 c-0.4,0.8-0.2,1.6-0.2,2.3c0,4,0,8.1,0,12.1c0,0.7,0.2,1.5-1,1.5c-1.3,0-1.2-0.7-1.2-1.5c0-5.8,0-11.6,0-17.3 c0-0.6-0.5-1.5,0.6-1.7c0.9-0.1,1.6,0,2.2,0.9c2.9,4.5,5.8,8.9,8.7,13.4C89.8,93.5,90.2,94.1,91,95.1z"></path> <path class="st8" d="M212,82.9c0,4.8,0,9.6,0,14.5c0,0.8,0.4,1.8-1.1,1.7c-1.4,0-1-1-1-1.7c0-5.7,0-11.4,0-17.1 c0-0.6-0.4-1.5,0.6-1.7c0.9-0.2,1.6,0,2.2,0.9c3.1,4.9,6.3,9.7,9.5,14.5c0.2,0.3,0.4,0.6,1,0.8c0-1.1,0-2.1,0-3.2 c0-3.9,0-7.8,0-11.7c0-0.8-0.1-1.4,1.1-1.4c1.1,0,0.9,0.7,0.9,1.4c0,5.9,0,11.8,0,17.7c0,0.5,0.4,1.3-0.5,1.4 c-0.8,0.1-1.6,0.2-2.1-0.7c-1.1-1.8-2.3-3.5-3.5-5.3c-2.2-3.4-4.5-6.8-6.7-10.3C212.2,82.8,212.1,82.9,212,82.9z"></path> <path class="st7" d="M101.2,88.8c0-2.9,0-5.8,0-8.7c0-1.1,0.1-1.6,1.4-1.5c2.5,0.2,5-0.2,7.4,0.2c5.5,0.9,8.4,4.8,8.2,10.8 c-0.2,5.4-3.7,9-9.1,9.4c-2.2,0.1-4.3,0-6.5,0.1c-1.1,0-1.4-0.3-1.4-1.4C101.2,94.8,101.2,91.8,101.2,88.8z M103.4,88.7 c0,2.4,0,4.8,0,7.2c0,0.7,0.1,1.2,1,1.1c1.8-0.1,3.7,0.1,5.6-0.3c3.9-0.8,6-3.6,6-8.1c0-4.4-2.2-7.3-6.2-8c-1.7-0.3-3.3-0.2-5-0.2 c-1.1-0.1-1.4,0.3-1.4,1.4C103.4,84.2,103.4,86.4,103.4,88.7z"></path> <path class="st8" d="M202.6,88.8c0,6.1-4.2,10.5-10,10.5c-5.8,0-10-4.4-10-10.5c0-6.1,4.2-10.5,10-10.5 C198.4,78.4,202.6,82.7,202.6,88.8z M200.4,88.9c0-5.1-3.1-8.6-7.8-8.5c-4.5,0-7.8,3.5-7.8,8.4c0,4.9,3.2,8.4,7.8,8.4 C197.2,97.2,200.4,93.9,200.4,88.9z"></path> <path class="st3" d="M248.3,19.6c-4,0-6.7-2.9-6.7-7.1c0-3.2,2.1-5.2,5.3-5.2c4.1,0,6.9,3,6.9,7.1 C253.7,17.8,251.6,19.7,248.3,19.6z"></path> <path class="st8" d="M156.3,78.4c4.3,0,7.4,1.5,9.2,5.1c0.2,0.5,1,1.2,0.1,1.5c-0.6,0.3-1.6,0.4-2.1-0.6c-0.9-1.8-2.3-3.1-4.2-3.7 c-5.8-1.8-10.8,2.4-10.2,8.8c0.3,3.3,1.6,6.1,4.9,7.2c2.9,1,5.6,0.6,8-1.5c0.7-0.6,1.2-1.3,1.5-2.1c0.4-1,1.4-0.9,2.1-0.6 c0.8,0.4,0.1,1.1-0.1,1.5c-1.7,3.6-5.5,5.6-9.9,5.1c-4.2-0.5-7.3-3.2-8.3-7.4c-1.2-5,0.6-10.1,4.4-12.2 C153.2,78.7,154.9,78.3,156.3,78.4z"></path> <path class="st8" d="M55.3,85.9c0-2,0-4,0-6c0-0.8,0-1.4,1.1-1.4c1.2,0,1.1,0.7,1.1,1.5c0,3.8-0.1,7.7,0,11.5 c0.1,3.9,2.2,5.9,5.8,5.6c2.5-0.2,4.3-1.6,4.5-4.4c0.2-3.2,0.1-6.4,0.2-9.7c0-1.2,0-2.4,0-3.5c0-0.9,0.3-1,1.1-1 c0.8,0,1.1,0.2,1.1,1.1c-0.1,4.3,0.1,8.6-0.2,12.8c-0.3,4.4-3.1,6.9-7.3,6.8c-4.3,0-7-2.6-7.3-7C55.3,90.1,55.4,88,55.3,85.9 C55.4,85.9,55.3,85.9,55.3,85.9z"></path> <path class="st8" d="M132.5,79.1c1-0.2,1.4,0.3,1.7,1.2c2.2,5.8,4.4,11.6,6.5,17.4c0.1,0.4,0.9,1.1,0,1.3c-0.7,0.2-1.6,0.5-2-0.6 c-0.4-1-0.8-2.1-1.1-3.1c-0.3-0.9-0.7-1.2-1.6-1.1c-2.2,0.1-4.5,0.1-6.7,0c-1.1,0-1.6,0.4-1.8,1.3c-0.3,0.9-0.7,1.8-1,2.8 c-0.3,1.2-1.2,1-1.9,0.8c-1.2-0.3-0.3-1-0.1-1.4c2.1-5.7,4.3-11.5,6.5-17.2C131.1,79.6,131.3,78.8,132.5,79.1z M132.5,81.6 c-1.3,3.5-2.4,6.5-3.6,9.5c-0.3,0.9-0.2,1.2,0.8,1.2c1.9-0.1,3.7,0,5.6,0c0.7,0,1-0.1,0.7-0.9C135,88.3,133.9,85.2,132.5,81.6z"></path> <path class="st9" d="M37.5,88.7c0-2.9,0.1-5.8,0-8.7c0-1.2,0.4-1.5,1.5-1.5c2.7,0.1,5.5,0,8.2,0c0.7,0,1.6-0.3,1.5,1 c0,1.3-1,0.8-1.6,0.8c-2,0.1-4.1,0.1-6.1,0c-1,0-1.3,0.2-1.3,1.2c0.1,2-0.6,4.6,0.4,6c1,1.3,3.7,0.3,5.6,0.4c0.3,0,0.6,0,0.9,0 c0.7,0,0.9,0.3,0.9,1c0,0.7-0.5,0.7-1,0.7c-1.8,0-3.6,0.1-5.4,0c-1.1-0.1-1.5,0.3-1.5,1.4c0.1,2.2,0,4.5,0,6.7 c0,0.8-0.1,1.3-1.1,1.3c-1,0-1.1-0.4-1.1-1.2C37.5,94.8,37.5,91.8,37.5,88.7z"></path> <path class="st9" d="M173.3,88.7c0-3,0-6,0-8.9c0-0.8,0.1-1.3,1.1-1.3c1,0,1.1,0.5,1.1,1.3c0,6,0,12,0,18c0,0.8-0.1,1.3-1.1,1.3 c-1,0-1.1-0.4-1.1-1.2C173.3,94.8,173.3,91.8,173.3,88.7z"></path> <path class="st9" d="M191.8,77.2c-0.5-1.6-1-0.8,5.5-4.9C197.9,74,197.1,74.8,191.8,77.2z"></path> </g> </svg> 